<svg width="358" height="228" viewBox="0 0 358 228" fill="none" xmlns="http://www.w3.org/2000/svg">
<g filter="url(#filter0_d_2_13)">
<g clip-path="url(#clip0_2_13)">
<rect width="350" height="220" rx="12" fill="#52784F"/>
<mask id="mask0_2_13" style="mask-type:alpha" maskUnits="userSpaceOnUse" x="0" y="0" width="350" height="220">
<rect width="350" height="220" rx="12" fill="white"/>
</mask>
<g mask="url(#mask0_2_13)">
<path d="M38.5986 138.094C38.3871 136.569 39.9057 135.387 41.3322 135.966L75.8343 149.979C77.2608 150.558 77.5252 152.465 76.3102 153.41L46.9239 176.284C45.709 177.229 43.9259 176.505 43.7144 174.98L38.5986 138.094Z" fill="#FFE459"/>
</g>
<mask id="mask1_2_13" style="mask-type:alpha" maskUnits="userSpaceOnUse" x="0" y="0" width="350" height="220">
<rect width="350" height="220" rx="12" fill="white"/>
</mask>
<g mask="url(#mask1_2_13)">
<path d="M133.651 96.817C134.705 95.6949 136.579 96.1348 137.023 97.6087L145.747 126.526C146.192 128 144.874 129.402 143.375 129.051L113.97 122.147C112.472 121.795 111.916 119.953 112.97 118.831L133.651 96.817Z" fill="#E7A4D4"/>
</g>
<mask id="mask2_2_13" style="mask-type:alpha" maskUnits="userSpaceOnUse" x="0" y="0" width="350" height="220">
<rect width="350" height="220" rx="12" fill="white"/>
</mask>
<g mask="url(#mask2_2_13)">
<path d="M99.1997 182.989C98.4816 181.627 99.5071 179.999 101.046 180.058L151.238 181.984C152.777 182.043 153.674 183.746 152.854 185.049L126.089 227.553C125.269 228.856 123.346 228.782 122.628 227.42L99.1997 182.989Z" fill="#111E0F"/>
</g>
<mask id="mask3_2_13" style="mask-type:alpha" maskUnits="userSpaceOnUse" x="0" y="0" width="350" height="220">
<rect width="350" height="220" rx="12" fill="white"/>
</mask>
<g mask="url(#mask3_2_13)">
<path d="M327.296 133.714L359.213 136.557C359.98 136.625 360.385 137.498 359.942 138.128L341.522 164.347C341.079 164.977 340.121 164.892 339.797 164.193L326.301 135.131C325.976 134.433 326.529 133.646 327.296 133.714Z" stroke="#E7A4D4" stroke-width="2" stroke-linejoin="round"/>
</g>
<mask id="mask4_2_13" style="mask-type:alpha" maskUnits="userSpaceOnUse" x="0" y="0" width="350" height="220">
<rect width="350" height="220" rx="12" fill="white"/>
</mask>
<g mask="url(#mask4_2_13)">
<path d="M271.413 155.203L266.894 188.674C266.791 189.437 265.901 189.802 265.291 189.331L238.564 168.682C237.955 168.212 238.084 167.258 238.796 166.966L270.042 154.144C270.754 153.851 271.516 154.44 271.413 155.203Z" stroke="#111E0F" stroke-width="2" stroke-linejoin="round"/>
</g>
<g clip-path="url(#clip1_2_13)">
<path fill-rule="evenodd" clip-rule="evenodd" d="M300.053 53.1041H313.435V29.2444H300.053V53.1041Z" fill="#FF5F00"/>
<path fill-rule="evenodd" clip-rule="evenodd" d="M300.903 41.1742C300.903 36.3336 303.187 32.0225 306.744 29.2443C304.143 27.2122 300.86 26 297.293 26C288.847 26 282 32.7938 282 41.1742C282 49.5545 288.847 56.3484 297.293 56.3484C300.86 56.3484 304.143 55.1361 306.744 53.104C303.187 50.3255 300.903 46.0147 300.903 41.1742Z" fill="#EB001B"/>
<path fill-rule="evenodd" clip-rule="evenodd" d="M331.011 50.577V49.9882H330.856L330.678 50.3933L330.499 49.9882H330.344V50.577H330.454V50.1328L330.621 50.5159H330.734L330.902 50.1319V50.577H331.011ZM330.029 50.577V50.0885H330.228V49.989H329.722V50.0885H329.921V50.577H330.029ZM331.488 41.1741C331.488 49.5545 324.641 56.3483 316.196 56.3483C312.628 56.3483 309.345 55.136 306.744 53.104C310.301 50.3258 312.586 46.0147 312.586 41.1741C312.586 36.3339 310.301 32.0228 306.744 29.2442C309.345 27.2122 312.628 25.9999 316.196 25.9999C324.641 25.9999 331.488 32.7937 331.488 41.1741Z" fill="#F79E1B"/>
</g>
<path d="M24.5449 193L23.4902 190.281H20.0566L19.0078 193H18L21.3516 184.398H22.248L25.5762 193H24.5449ZM23.1914 189.396L22.1895 186.695C22.166 186.625 22.127 186.51 22.0723 186.35C22.0215 186.189 21.9688 186.023 21.9141 185.852C21.8594 185.68 21.8145 185.541 21.7793 185.436C21.7402 185.596 21.6973 185.756 21.6504 185.916C21.6074 186.072 21.5645 186.219 21.5215 186.355C21.4785 186.488 21.4414 186.602 21.4102 186.695L20.3906 189.396H23.1914ZM33.5918 186.461C34.2988 186.461 34.832 186.646 35.1914 187.018C35.5508 187.385 35.7305 187.977 35.7305 188.793V193H34.7695V188.84C34.7695 188.32 34.6562 187.932 34.4297 187.674C34.207 187.412 33.875 187.281 33.4336 187.281C32.8125 187.281 32.3613 187.461 32.0801 187.82C31.7988 188.18 31.6582 188.709 31.6582 189.408V193H30.6914V188.84C30.6914 188.492 30.6406 188.203 30.5391 187.973C30.4414 187.742 30.293 187.57 30.0938 187.457C29.8984 187.34 29.6504 187.281 29.3496 187.281C28.9238 187.281 28.582 187.369 28.3242 187.545C28.0664 187.721 27.8789 187.982 27.7617 188.33C27.6484 188.674 27.5918 189.098 27.5918 189.602V193H26.6191V186.578H27.4043L27.5508 187.486H27.6035C27.7324 187.264 27.8945 187.076 28.0898 186.924C28.2852 186.771 28.5039 186.656 28.7461 186.578C28.9883 186.5 29.2461 186.461 29.5195 186.461C30.0078 186.461 30.416 186.553 30.7441 186.736C31.0762 186.916 31.3164 187.191 31.4648 187.562H31.5176C31.7285 187.191 32.0176 186.916 32.3848 186.736C32.752 186.553 33.1543 186.461 33.5918 186.461ZM40.1309 186.473C40.8965 186.473 41.4648 186.645 41.8359 186.988C42.207 187.332 42.3926 187.881 42.3926 188.635V193H41.6836L41.4961 192.051H41.4492C41.2695 192.285 41.082 192.482 40.8867 192.643C40.6914 192.799 40.4648 192.918 40.207 193C39.9531 193.078 39.6406 193.117 39.2695 193.117C38.8789 193.117 38.5312 193.049 38.2266 192.912C37.9258 192.775 37.6875 192.568 37.5117 192.291C37.3398 192.014 37.2539 191.662 37.2539 191.236C37.2539 190.596 37.5078 190.104 38.0156 189.76C38.5234 189.416 39.2969 189.229 40.3359 189.197L41.4434 189.15V188.758C41.4434 188.203 41.3242 187.814 41.0859 187.592C40.8477 187.369 40.5117 187.258 40.0781 187.258C39.7422 187.258 39.4219 187.307 39.1172 187.404C38.8125 187.502 38.5234 187.617 38.25 187.75L37.9512 187.012C38.2402 186.863 38.5723 186.736 38.9473 186.631C39.3223 186.525 39.7168 186.473 40.1309 186.473ZM41.4316 189.836L40.4531 189.877C39.6523 189.908 39.0879 190.039 38.7598 190.27C38.4316 190.5 38.2676 190.826 38.2676 191.248C38.2676 191.615 38.3789 191.887 38.6016 192.062C38.8242 192.238 39.1191 192.326 39.4863 192.326C40.0566 192.326 40.5234 192.168 40.8867 191.852C41.25 191.535 41.4316 191.061 41.4316 190.428V189.836ZM47.4375 186.461C48.1992 186.461 48.7754 186.648 49.166 187.023C49.5566 187.395 49.752 187.992 49.752 188.816V193H48.791V188.881C48.791 188.346 48.668 187.945 48.4219 187.68C48.1797 187.414 47.8066 187.281 47.3027 187.281C46.5918 187.281 46.0918 187.482 45.8027 187.885C45.5137 188.287 45.3691 188.871 45.3691 189.637V193H44.3965V186.578H45.1816L45.3281 187.504H45.3809C45.5176 187.277 45.6914 187.088 45.9023 186.936C46.1133 186.779 46.3496 186.662 46.6113 186.584C46.873 186.502 47.1484 186.461 47.4375 186.461ZM54.041 193.117C53.2285 193.117 52.584 192.84 52.1074 192.285C51.6348 191.73 51.3984 190.906 51.3984 189.812C51.3984 188.707 51.6406 187.873 52.125 187.311C52.6094 186.744 53.2539 186.461 54.0586 186.461C54.3984 186.461 54.6953 186.506 54.9492 186.596C55.2031 186.686 55.4219 186.807 55.6055 186.959C55.7891 187.107 55.9434 187.277 56.0684 187.469H56.1387C56.123 187.348 56.1074 187.182 56.0918 186.971C56.0762 186.76 56.0684 186.588 56.0684 186.455V183.883H57.041V193H56.2559L56.1094 192.086H56.0684C55.9473 192.277 55.793 192.451 55.6055 192.607C55.4219 192.764 55.2012 192.889 54.9434 192.982C54.6895 193.072 54.3887 193.117 54.041 193.117ZM54.1934 192.309C54.8809 192.309 55.3672 192.113 55.6523 191.723C55.9375 191.332 56.0801 190.752 56.0801 189.982V189.807C56.0801 188.99 55.9434 188.363 55.6699 187.926C55.4004 187.488 54.9082 187.27 54.1934 187.27C53.5957 187.27 53.1484 187.5 52.8516 187.961C52.5547 188.418 52.4062 189.043 52.4062 189.836C52.4062 190.625 52.5527 191.234 52.8457 191.664C53.1426 192.094 53.5918 192.309 54.1934 192.309ZM61.5059 186.473C62.2715 186.473 62.8398 186.645 63.2109 186.988C63.582 187.332 63.7676 187.881 63.7676 188.635V193H63.0586L62.8711 192.051H62.8242C62.6445 192.285 62.457 192.482 62.2617 192.643C62.0664 192.799 61.8398 192.918 61.582 193C61.3281 193.078 61.0156 193.117 60.6445 193.117C60.2539 193.117 59.9062 193.049 59.6016 192.912C59.3008 192.775 59.0625 192.568 58.8867 192.291C58.7148 192.014 58.6289 191.662 58.6289 191.236C58.6289 190.596 58.8828 190.104 59.3906 189.76C59.8984 189.416 60.6719 189.229 61.7109 189.197L62.8184 189.15V188.758C62.8184 188.203 62.6992 187.814 62.4609 187.592C62.2227 187.369 61.8867 187.258 61.4531 187.258C61.1172 187.258 60.7969 187.307 60.4922 187.404C60.1875 187.502 59.8984 187.617 59.625 187.75L59.3262 187.012C59.6152 186.863 59.9473 186.736 60.3223 186.631C60.6973 186.525 61.0918 186.473 61.5059 186.473ZM62.8066 189.836L61.8281 189.877C61.0273 189.908 60.4629 190.039 60.1348 190.27C59.8066 190.5 59.6426 190.826 59.6426 191.248C59.6426 191.615 59.7539 191.887 59.9766 192.062C60.1992 192.238 60.4941 192.326 60.8613 192.326C61.4316 192.326 61.8984 192.168 62.2617 191.852C62.625 191.535 62.8066 191.061 62.8066 190.428V189.836ZM72.6973 188.512H75.6914V192.666C75.2422 192.818 74.7793 192.932 74.3027 193.006C73.8301 193.08 73.3008 193.117 72.7148 193.117C71.8242 193.117 71.0723 192.939 70.459 192.584C69.8496 192.229 69.3867 191.723 69.0703 191.066C68.7539 190.406 68.5957 189.623 68.5957 188.717C68.5957 187.83 68.7695 187.057 69.1172 186.396C69.4688 185.736 69.9746 185.225 70.6348 184.861C71.2988 184.494 72.0957 184.311 73.0254 184.311C73.502 184.311 73.9531 184.355 74.3789 184.445C74.8086 184.531 75.207 184.654 75.5742 184.814L75.1934 185.682C74.877 185.545 74.5273 185.428 74.1445 185.33C73.7656 185.232 73.373 185.184 72.9668 185.184C72.2676 185.184 71.668 185.328 71.168 185.617C70.6719 185.906 70.291 186.314 70.0254 186.842C69.7637 187.369 69.6328 187.994 69.6328 188.717C69.6328 189.432 69.748 190.055 69.9785 190.586C70.209 191.113 70.5684 191.523 71.0566 191.816C71.5449 192.109 72.1738 192.256 72.9434 192.256C73.3301 192.256 73.6621 192.234 73.9395 192.191C74.2168 192.145 74.4688 192.09 74.6953 192.027V189.402H72.6973V188.512ZM84.5449 185.189C84.0723 185.189 83.6465 185.271 83.2676 185.436C82.8926 185.596 82.5723 185.83 82.3066 186.139C82.0449 186.443 81.8438 186.812 81.7031 187.246C81.5625 187.68 81.4922 188.168 81.4922 188.711C81.4922 189.43 81.6035 190.055 81.8262 190.586C82.0527 191.113 82.3887 191.521 82.834 191.811C83.2832 192.1 83.8438 192.244 84.5156 192.244C84.8984 192.244 85.2578 192.213 85.5938 192.15C85.9336 192.084 86.2637 192.002 86.584 191.904V192.771C86.2715 192.889 85.9434 192.975 85.5996 193.029C85.2559 193.088 84.8477 193.117 84.375 193.117C83.5039 193.117 82.7754 192.938 82.1895 192.578C81.6074 192.215 81.1699 191.703 80.877 191.043C80.5879 190.383 80.4434 189.604 80.4434 188.705C80.4434 188.057 80.5332 187.465 80.7129 186.93C80.8965 186.391 81.1621 185.926 81.5098 185.535C81.8613 185.145 82.291 184.844 82.7988 184.633C83.3105 184.418 83.8965 184.311 84.5566 184.311C84.9902 184.311 85.4082 184.354 85.8105 184.439C86.2129 184.525 86.5762 184.648 86.9004 184.809L86.502 185.652C86.2285 185.527 85.9277 185.42 85.5996 185.33C85.2754 185.236 84.9238 185.189 84.5449 185.189ZM95.3262 193L92.4492 185.418H92.4023C92.418 185.578 92.4316 185.773 92.4434 186.004C92.4551 186.234 92.4648 186.486 92.4727 186.76C92.4805 187.029 92.4844 187.305 92.4844 187.586V193H91.5586V184.434H93.0352L95.748 191.559H95.7891L98.543 184.434H100.008V193H99.0234V187.516C99.0234 187.262 99.0273 187.008 99.0352 186.754C99.043 186.496 99.0527 186.254 99.0645 186.027C99.0762 185.797 99.0879 185.598 99.0996 185.43H99.0527L96.1406 193H95.3262ZM105.469 193V184.434H106.465V192.109H110.268V193H105.469ZM117.129 189.777C117.129 190.305 117.061 190.775 116.924 191.189C116.787 191.604 116.59 191.953 116.332 192.238C116.074 192.523 115.762 192.742 115.395 192.895C115.031 193.043 114.619 193.117 114.158 193.117C113.729 193.117 113.334 193.043 112.975 192.895C112.619 192.742 112.311 192.523 112.049 192.238C111.791 191.953 111.59 191.604 111.445 191.189C111.305 190.775 111.234 190.305 111.234 189.777C111.234 189.074 111.354 188.477 111.592 187.984C111.83 187.488 112.17 187.111 112.611 186.854C113.057 186.592 113.586 186.461 114.199 186.461C114.785 186.461 115.297 186.592 115.734 186.854C116.176 187.115 116.518 187.494 116.76 187.99C117.006 188.482 117.129 189.078 117.129 189.777ZM112.242 189.777C112.242 190.293 112.311 190.74 112.447 191.119C112.584 191.498 112.795 191.791 113.08 191.998C113.365 192.205 113.732 192.309 114.182 192.309C114.627 192.309 114.992 192.205 115.277 191.998C115.566 191.791 115.779 191.498 115.916 191.119C116.053 190.74 116.121 190.293 116.121 189.777C116.121 189.266 116.053 188.824 115.916 188.453C115.779 188.078 115.568 187.789 115.283 187.586C114.998 187.383 114.629 187.281 114.176 187.281C113.508 187.281 113.018 187.502 112.705 187.943C112.396 188.385 112.242 188.996 112.242 189.777ZM121.828 186.461C122.629 186.461 123.268 186.736 123.744 187.287C124.221 187.838 124.459 188.666 124.459 189.771C124.459 190.502 124.35 191.115 124.131 191.611C123.912 192.107 123.604 192.482 123.205 192.736C122.811 192.99 122.344 193.117 121.805 193.117C121.465 193.117 121.166 193.072 120.908 192.982C120.65 192.893 120.43 192.771 120.246 192.619C120.062 192.467 119.91 192.301 119.789 192.121H119.719C119.73 192.273 119.744 192.457 119.76 192.672C119.779 192.887 119.789 193.074 119.789 193.234V195.871H118.811V186.578H119.613L119.742 187.527H119.789C119.914 187.332 120.066 187.154 120.246 186.994C120.426 186.83 120.645 186.701 120.902 186.607C121.164 186.51 121.473 186.461 121.828 186.461ZM121.658 187.281C121.213 187.281 120.854 187.367 120.58 187.539C120.311 187.711 120.113 187.969 119.988 188.312C119.863 188.652 119.797 189.08 119.789 189.596V189.783C119.789 190.326 119.848 190.785 119.965 191.16C120.086 191.535 120.283 191.82 120.557 192.016C120.834 192.211 121.205 192.309 121.67 192.309C122.068 192.309 122.4 192.201 122.666 191.986C122.932 191.771 123.129 191.473 123.258 191.09C123.391 190.703 123.457 190.26 123.457 189.76C123.457 189.002 123.309 188.4 123.012 187.955C122.719 187.506 122.268 187.281 121.658 187.281ZM128.631 186.461C129.178 186.461 129.646 186.582 130.037 186.824C130.428 187.066 130.727 187.406 130.934 187.844C131.141 188.277 131.244 188.785 131.244 189.367V189.971H126.809C126.82 190.725 127.008 191.299 127.371 191.693C127.734 192.088 128.246 192.285 128.906 192.285C129.312 192.285 129.672 192.248 129.984 192.174C130.297 192.1 130.621 191.99 130.957 191.846V192.701C130.633 192.846 130.311 192.951 129.99 193.018C129.674 193.084 129.299 193.117 128.865 193.117C128.248 193.117 127.709 192.992 127.248 192.742C126.791 192.488 126.436 192.117 126.182 191.629C125.928 191.141 125.801 190.543 125.801 189.836C125.801 189.145 125.916 188.547 126.146 188.043C126.381 187.535 126.709 187.145 127.131 186.871C127.557 186.598 128.057 186.461 128.631 186.461ZM128.619 187.258C128.1 187.258 127.686 187.428 127.377 187.768C127.068 188.107 126.885 188.582 126.826 189.191H130.225C130.221 188.809 130.16 188.473 130.043 188.184C129.93 187.891 129.756 187.664 129.521 187.504C129.287 187.34 128.986 187.258 128.619 187.258ZM137.051 191.242C137.051 191.652 136.947 191.998 136.74 192.279C136.537 192.557 136.244 192.766 135.861 192.906C135.482 193.047 135.029 193.117 134.502 193.117C134.053 193.117 133.664 193.082 133.336 193.012C133.008 192.941 132.721 192.842 132.475 192.713V191.816C132.736 191.945 133.049 192.062 133.412 192.168C133.775 192.273 134.146 192.326 134.525 192.326C135.08 192.326 135.482 192.236 135.732 192.057C135.982 191.877 136.107 191.633 136.107 191.324C136.107 191.148 136.057 190.994 135.955 190.861C135.857 190.725 135.691 190.594 135.457 190.469C135.223 190.34 134.898 190.199 134.484 190.047C134.074 189.891 133.719 189.736 133.418 189.584C133.121 189.428 132.891 189.238 132.727 189.016C132.566 188.793 132.486 188.504 132.486 188.148C132.486 187.605 132.705 187.189 133.143 186.9C133.584 186.607 134.162 186.461 134.877 186.461C135.264 186.461 135.625 186.5 135.961 186.578C136.301 186.652 136.617 186.754 136.91 186.883L136.582 187.662C136.316 187.549 136.033 187.453 135.732 187.375C135.432 187.297 135.125 187.258 134.812 187.258C134.363 187.258 134.018 187.332 133.775 187.48C133.537 187.629 133.418 187.832 133.418 188.09C133.418 188.289 133.473 188.453 133.582 188.582C133.695 188.711 133.875 188.832 134.121 188.945C134.367 189.059 134.691 189.191 135.094 189.344C135.496 189.492 135.844 189.646 136.137 189.807C136.43 189.963 136.654 190.154 136.811 190.381C136.971 190.604 137.051 190.891 137.051 191.242Z" fill="white"/>
<path d="M301.252 188.705C301.252 189.4 301.199 190.021 301.094 190.568C300.988 191.115 300.822 191.578 300.596 191.957C300.369 192.336 300.076 192.625 299.717 192.824C299.357 193.02 298.926 193.117 298.422 193.117C297.785 193.117 297.258 192.943 296.84 192.596C296.426 192.248 296.115 191.746 295.908 191.09C295.705 190.43 295.604 189.635 295.604 188.705C295.604 187.791 295.695 187.006 295.879 186.35C296.066 185.689 296.367 185.184 296.781 184.832C297.195 184.477 297.742 184.299 298.422 184.299C299.066 184.299 299.598 184.475 300.016 184.826C300.434 185.174 300.744 185.678 300.947 186.338C301.15 186.994 301.252 187.783 301.252 188.705ZM296.582 188.705C296.582 189.502 296.643 190.166 296.764 190.697C296.885 191.229 297.08 191.627 297.35 191.893C297.623 192.154 297.98 192.285 298.422 192.285C298.863 192.285 299.219 192.154 299.488 191.893C299.762 191.631 299.959 191.234 300.08 190.703C300.205 190.172 300.268 189.506 300.268 188.705C300.268 187.92 300.207 187.264 300.086 186.736C299.965 186.205 299.77 185.807 299.5 185.541C299.23 185.271 298.871 185.137 298.422 185.137C297.973 185.137 297.613 185.271 297.344 185.541C297.074 185.807 296.879 186.205 296.758 186.736C296.641 187.264 296.582 187.92 296.582 188.705ZM302.547 189.338C302.547 188.822 302.582 188.318 302.652 187.826C302.727 187.334 302.85 186.877 303.021 186.455C303.193 186.029 303.428 185.656 303.725 185.336C304.021 185.016 304.391 184.766 304.832 184.586C305.277 184.402 305.811 184.311 306.432 184.311C306.607 184.311 306.797 184.32 307 184.34C307.203 184.355 307.371 184.383 307.504 184.422V185.26C307.359 185.209 307.193 185.172 307.006 185.148C306.822 185.125 306.637 185.113 306.449 185.113C305.723 185.113 305.15 185.271 304.732 185.588C304.318 185.904 304.02 186.334 303.836 186.877C303.652 187.416 303.547 188.023 303.52 188.699H303.584C303.705 188.504 303.859 188.328 304.047 188.172C304.234 188.012 304.461 187.885 304.727 187.791C304.996 187.697 305.309 187.65 305.664 187.65C306.164 187.65 306.6 187.752 306.971 187.955C307.346 188.158 307.635 188.453 307.838 188.84C308.045 189.227 308.148 189.695 308.148 190.246C308.148 190.836 308.039 191.346 307.82 191.775C307.602 192.205 307.289 192.537 306.883 192.771C306.48 193.002 306 193.117 305.441 193.117C305.023 193.117 304.639 193.037 304.287 192.877C303.936 192.717 303.629 192.479 303.367 192.162C303.109 191.846 302.908 191.453 302.764 190.984C302.619 190.512 302.547 189.963 302.547 189.338ZM305.43 192.297C305.961 192.297 306.387 192.127 306.707 191.787C307.027 191.447 307.188 190.934 307.188 190.246C307.188 189.684 307.045 189.238 306.76 188.91C306.475 188.582 306.045 188.418 305.471 188.418C305.08 188.418 304.74 188.5 304.451 188.664C304.162 188.824 303.938 189.027 303.777 189.273C303.617 189.52 303.537 189.77 303.537 190.023C303.537 190.281 303.574 190.543 303.648 190.809C303.727 191.074 303.844 191.32 304 191.547C304.156 191.773 304.354 191.955 304.592 192.092C304.83 192.229 305.109 192.297 305.43 192.297ZM313.006 184.434L309.818 193H308.857L312.051 184.434H313.006ZM319.346 193H313.732V192.186L316.023 189.859C316.449 189.43 316.807 189.047 317.096 188.711C317.389 188.375 317.611 188.045 317.764 187.721C317.916 187.393 317.992 187.033 317.992 186.643C317.992 186.158 317.848 185.789 317.559 185.535C317.273 185.277 316.896 185.148 316.428 185.148C316.018 185.148 315.654 185.219 315.338 185.359C315.021 185.5 314.697 185.699 314.365 185.957L313.844 185.301C314.07 185.109 314.316 184.939 314.582 184.791C314.852 184.643 315.139 184.525 315.443 184.439C315.752 184.354 316.08 184.311 316.428 184.311C316.955 184.311 317.41 184.402 317.793 184.586C318.176 184.77 318.471 185.031 318.678 185.371C318.889 185.711 318.994 186.115 318.994 186.584C318.994 187.037 318.904 187.459 318.725 187.85C318.545 188.236 318.293 188.621 317.969 189.004C317.645 189.383 317.266 189.785 316.832 190.211L314.969 192.068V192.109H319.346V193ZM320.688 189.338C320.688 188.822 320.723 188.318 320.793 187.826C320.867 187.334 320.99 186.877 321.162 186.455C321.334 186.029 321.568 185.656 321.865 185.336C322.162 185.016 322.531 184.766 322.973 184.586C323.418 184.402 323.951 184.311 324.572 184.311C324.748 184.311 324.938 184.32 325.141 184.34C325.344 184.355 325.512 184.383 325.645 184.422V185.26C325.5 185.209 325.334 185.172 325.146 185.148C324.963 185.125 324.777 185.113 324.59 185.113C323.863 185.113 323.291 185.271 322.873 185.588C322.459 185.904 322.16 186.334 321.977 186.877C321.793 187.416 321.688 188.023 321.66 188.699H321.725C321.846 188.504 322 188.328 322.188 188.172C322.375 188.012 322.602 187.885 322.867 187.791C323.137 187.697 323.449 187.65 323.805 187.65C324.305 187.65 324.74 187.752 325.111 187.955C325.486 188.158 325.775 188.453 325.979 188.84C326.186 189.227 326.289 189.695 326.289 190.246C326.289 190.836 326.18 191.346 325.961 191.775C325.742 192.205 325.43 192.537 325.023 192.771C324.621 193.002 324.141 193.117 323.582 193.117C323.164 193.117 322.779 193.037 322.428 192.877C322.076 192.717 321.77 192.479 321.508 192.162C321.25 191.846 321.049 191.453 320.904 190.984C320.76 190.512 320.688 189.963 320.688 189.338ZM323.57 192.297C324.102 192.297 324.527 192.127 324.848 191.787C325.168 191.447 325.328 190.934 325.328 190.246C325.328 189.684 325.186 189.238 324.9 188.91C324.615 188.582 324.186 188.418 323.611 188.418C323.221 188.418 322.881 188.5 322.592 188.664C322.303 188.824 322.078 189.027 321.918 189.273C321.758 189.52 321.678 189.77 321.678 190.023C321.678 190.281 321.715 190.543 321.789 190.809C321.867 191.074 321.984 191.32 322.141 191.547C322.297 191.773 322.494 191.955 322.732 192.092C322.971 192.229 323.25 192.297 323.57 192.297Z" fill="white"/>
<g filter="url(#filter1_d_2_13)">
<path d="M24.3193 174H22.8955V164.895C22.8955 164.549 22.8955 164.253 22.8955 164.007C22.9014 163.755 22.9072 163.526 22.9131 163.321C22.9248 163.11 22.9395 162.896 22.957 162.68C22.7754 162.867 22.6055 163.028 22.4473 163.163C22.2891 163.292 22.0928 163.453 21.8584 163.646L20.3906 164.824L19.626 163.831L23.1064 161.15H24.3193V174ZM37.6084 174H29.1885V172.778L32.625 169.289C33.2637 168.645 33.7998 168.07 34.2334 167.566C34.6729 167.062 35.0068 166.567 35.2354 166.081C35.4639 165.589 35.5781 165.05 35.5781 164.464C35.5781 163.737 35.3613 163.184 34.9277 162.803C34.5 162.416 33.9346 162.223 33.2314 162.223C32.6162 162.223 32.0713 162.328 31.5967 162.539C31.1221 162.75 30.6357 163.049 30.1377 163.436L29.3555 162.451C29.6953 162.164 30.0645 161.909 30.4629 161.687C30.8672 161.464 31.2979 161.288 31.7549 161.159C32.2178 161.03 32.71 160.966 33.2314 160.966C34.0225 160.966 34.7051 161.104 35.2793 161.379C35.8535 161.654 36.2959 162.047 36.6064 162.557C36.9229 163.066 37.0811 163.673 37.0811 164.376C37.0811 165.056 36.9463 165.688 36.6768 166.274C36.4072 166.854 36.0293 167.432 35.543 168.006C35.0566 168.574 34.4883 169.178 33.8379 169.816L31.043 172.603V172.664H37.6084V174ZM47.4346 164.147C47.4346 164.722 47.3232 165.22 47.1006 165.642C46.8779 166.063 46.5674 166.409 46.1689 166.679C45.7705 166.942 45.3018 167.127 44.7627 167.232V167.303C45.7822 167.432 46.5469 167.76 47.0566 168.287C47.5723 168.814 47.8301 169.506 47.8301 170.361C47.8301 171.105 47.6543 171.765 47.3027 172.339C46.957 172.913 46.4238 173.364 45.7031 173.692C44.9883 174.015 44.0713 174.176 42.9521 174.176C42.2725 174.176 41.6426 174.12 41.0625 174.009C40.4883 173.903 39.9375 173.725 39.4102 173.473V172.102C39.9434 172.365 40.5234 172.573 41.1504 172.726C41.7773 172.872 42.3838 172.945 42.9697 172.945C44.1416 172.945 44.9883 172.714 45.5098 172.251C46.0312 171.782 46.292 171.144 46.292 170.335C46.292 169.778 46.1455 169.33 45.8525 168.99C45.5654 168.645 45.1494 168.393 44.6045 168.234C44.0654 168.07 43.415 167.988 42.6533 167.988H41.3701V166.74H42.6621C43.3594 166.74 43.9512 166.638 44.4375 166.433C44.9238 166.228 45.293 165.94 45.5449 165.571C45.8027 165.196 45.9316 164.754 45.9316 164.244C45.9316 163.594 45.7148 163.093 45.2812 162.741C44.8477 162.384 44.2588 162.205 43.5146 162.205C43.0576 162.205 42.6416 162.252 42.2666 162.346C41.8916 162.439 41.54 162.568 41.2119 162.732C40.8838 162.896 40.5557 163.087 40.2275 163.304L39.4893 162.302C39.958 161.938 40.5293 161.625 41.2031 161.361C41.877 161.098 42.6416 160.966 43.4971 160.966C44.8096 160.966 45.7939 161.265 46.4502 161.862C47.1064 162.46 47.4346 163.222 47.4346 164.147ZM58.8516 171.021H56.9268V174H55.5029V171.021H49.2891V169.79L55.4062 161.08H56.9268V169.702H58.8516V171.021ZM55.5029 169.702V165.501C55.5029 165.179 55.5059 164.889 55.5117 164.631C55.5176 164.367 55.5264 164.124 55.5381 163.901C55.5498 163.673 55.5586 163.456 55.5645 163.251C55.5762 163.046 55.585 162.844 55.5908 162.645H55.5205C55.4092 162.879 55.2803 163.128 55.1338 163.392C54.9932 163.649 54.8496 163.881 54.7031 164.086L50.7393 169.702H55.5029Z" fill="white"/>
<path d="M79.9482 166.143C80.8213 166.143 81.5801 166.292 82.2246 166.591C82.8691 166.884 83.3672 167.312 83.7188 167.874C84.0762 168.437 84.2549 169.119 84.2549 169.922C84.2549 170.801 84.0645 171.56 83.6836 172.198C83.3027 172.831 82.7549 173.32 82.04 173.666C81.3252 174.006 80.4697 174.176 79.4736 174.176C78.8057 174.176 78.1846 174.117 77.6104 174C77.0361 173.883 76.5527 173.707 76.1602 173.473V172.084C76.5879 172.342 77.1064 172.547 77.7158 172.699C78.3252 172.852 78.917 172.928 79.4912 172.928C80.1416 172.928 80.71 172.825 81.1963 172.62C81.6885 172.409 82.0693 172.093 82.3389 171.671C82.6143 171.243 82.752 170.707 82.752 170.062C82.752 169.207 82.4883 168.548 81.9609 168.085C81.4395 167.616 80.6133 167.382 79.4824 167.382C79.1191 167.382 78.7207 167.411 78.2871 167.47C77.8535 167.528 77.4961 167.593 77.2148 167.663L76.4766 167.18L76.9688 161.15H83.3584V162.486H78.2168L77.8916 166.362C78.1143 166.315 78.4014 166.269 78.7529 166.222C79.1045 166.169 79.5029 166.143 79.9482 166.143ZM86.3203 168.507C86.3203 167.733 86.373 166.978 86.4785 166.239C86.5898 165.501 86.7744 164.815 87.0322 164.183C87.29 163.544 87.6416 162.984 88.0869 162.504C88.5322 162.023 89.0859 161.648 89.748 161.379C90.416 161.104 91.2158 160.966 92.1475 160.966C92.4111 160.966 92.6953 160.98 93 161.01C93.3047 161.033 93.5566 161.074 93.7559 161.133V162.39C93.5391 162.313 93.29 162.258 93.0088 162.223C92.7334 162.188 92.4551 162.17 92.1738 162.17C91.084 162.17 90.2256 162.407 89.5986 162.882C88.9775 163.356 88.5293 164.001 88.2539 164.815C87.9785 165.624 87.8203 166.535 87.7793 167.549H87.876C88.0576 167.256 88.2891 166.992 88.5703 166.758C88.8516 166.518 89.1914 166.327 89.5898 166.187C89.9941 166.046 90.4629 165.976 90.9961 165.976C91.7461 165.976 92.3994 166.128 92.9561 166.433C93.5186 166.737 93.9521 167.18 94.2568 167.76C94.5674 168.34 94.7227 169.043 94.7227 169.869C94.7227 170.754 94.5586 171.519 94.2305 172.163C93.9023 172.808 93.4336 173.306 92.8242 173.657C92.2207 174.003 91.5 174.176 90.6621 174.176C90.0352 174.176 89.458 174.056 88.9307 173.815C88.4033 173.575 87.9434 173.218 87.5508 172.743C87.1641 172.269 86.8623 171.68 86.6455 170.977C86.4287 170.268 86.3203 169.444 86.3203 168.507ZM90.6445 172.945C91.4414 172.945 92.0801 172.69 92.5605 172.181C93.041 171.671 93.2812 170.9 93.2812 169.869C93.2812 169.025 93.0674 168.357 92.6396 167.865C92.2119 167.373 91.5674 167.127 90.7061 167.127C90.1201 167.127 89.6104 167.25 89.1768 167.496C88.7432 167.736 88.4062 168.041 88.166 168.41C87.9258 168.779 87.8057 169.154 87.8057 169.535C87.8057 169.922 87.8613 170.314 87.9727 170.713C88.0898 171.111 88.2656 171.48 88.5 171.82C88.7344 172.16 89.0303 172.433 89.3877 172.638C89.7451 172.843 90.1641 172.945 90.6445 172.945ZM98.1504 174L103.424 162.486H96.4189V161.15H104.988V162.275L99.75 174H98.1504ZM111.035 160.966C111.779 160.966 112.438 161.083 113.013 161.317C113.587 161.552 114.035 161.897 114.357 162.354C114.686 162.806 114.85 163.362 114.85 164.024C114.85 164.546 114.735 165.003 114.507 165.396C114.284 165.782 113.982 166.122 113.602 166.415C113.221 166.702 112.799 166.96 112.336 167.188C112.887 167.44 113.382 167.725 113.821 168.041C114.267 168.357 114.618 168.729 114.876 169.157C115.134 169.585 115.263 170.092 115.263 170.678C115.263 171.398 115.087 172.022 114.735 172.55C114.39 173.071 113.903 173.473 113.276 173.754C112.649 174.035 111.914 174.176 111.07 174.176C110.162 174.176 109.389 174.041 108.75 173.771C108.117 173.496 107.634 173.104 107.3 172.594C106.972 172.078 106.808 171.46 106.808 170.739C106.808 170.147 106.934 169.635 107.186 169.201C107.438 168.762 107.771 168.384 108.188 168.067C108.604 167.751 109.058 167.484 109.55 167.268C109.122 167.033 108.729 166.767 108.372 166.468C108.021 166.169 107.739 165.82 107.528 165.422C107.323 165.018 107.221 164.549 107.221 164.016C107.221 163.365 107.385 162.814 107.713 162.363C108.047 161.906 108.501 161.561 109.075 161.326C109.655 161.086 110.309 160.966 111.035 160.966ZM108.24 170.748C108.24 171.404 108.472 171.946 108.935 172.374C109.397 172.796 110.098 173.007 111.035 173.007C111.926 173.007 112.614 172.796 113.101 172.374C113.587 171.946 113.83 171.387 113.83 170.695C113.83 170.268 113.719 169.893 113.496 169.57C113.273 169.242 112.957 168.949 112.547 168.691C112.137 168.434 111.653 168.199 111.097 167.988L110.78 167.874C110.241 168.097 109.781 168.346 109.4 168.621C109.025 168.891 108.738 169.198 108.539 169.544C108.34 169.89 108.24 170.291 108.24 170.748ZM111.018 162.161C110.326 162.161 109.761 162.328 109.321 162.662C108.882 162.99 108.662 163.465 108.662 164.086C108.662 164.531 108.768 164.909 108.979 165.22C109.195 165.524 109.488 165.788 109.857 166.011C110.227 166.228 110.64 166.43 111.097 166.617C111.542 166.43 111.938 166.225 112.283 166.002C112.629 165.773 112.901 165.504 113.101 165.193C113.3 164.883 113.399 164.511 113.399 164.077C113.399 163.456 113.18 162.981 112.74 162.653C112.307 162.325 111.732 162.161 111.018 162.161Z" fill="white"/>
<path d="M142.325 166.626C142.325 167.405 142.27 168.164 142.158 168.902C142.053 169.641 141.868 170.329 141.604 170.968C141.347 171.606 140.995 172.166 140.55 172.646C140.104 173.127 139.545 173.505 138.871 173.78C138.203 174.05 137.403 174.185 136.472 174.185C136.22 174.185 135.933 174.167 135.61 174.132C135.288 174.103 135.024 174.059 134.819 174V172.734C135.036 172.811 135.291 172.872 135.584 172.919C135.877 172.96 136.164 172.98 136.445 172.98C137.541 172.98 138.402 172.746 139.029 172.277C139.656 171.803 140.107 171.161 140.383 170.353C140.658 169.538 140.813 168.624 140.849 167.61H140.743C140.567 167.892 140.336 168.152 140.049 168.393C139.768 168.627 139.425 168.817 139.021 168.964C138.616 169.104 138.145 169.175 137.605 169.175C136.861 169.175 136.211 169.022 135.654 168.718C135.104 168.413 134.673 167.971 134.362 167.391C134.058 166.811 133.905 166.11 133.905 165.29C133.905 164.405 134.072 163.641 134.406 162.996C134.746 162.346 135.221 161.845 135.83 161.493C136.439 161.142 137.157 160.966 137.983 160.966C138.616 160.966 139.196 161.086 139.724 161.326C140.251 161.566 140.708 161.927 141.095 162.407C141.487 162.882 141.789 163.471 142 164.174C142.217 164.877 142.325 165.694 142.325 166.626ZM137.983 162.205C137.204 162.205 136.571 162.46 136.085 162.97C135.604 163.479 135.364 164.247 135.364 165.272C135.364 166.122 135.572 166.793 135.988 167.285C136.404 167.777 137.046 168.023 137.913 168.023C138.511 168.023 139.026 167.903 139.46 167.663C139.899 167.423 140.236 167.118 140.471 166.749C140.711 166.38 140.831 166.002 140.831 165.615C140.831 165.229 140.772 164.836 140.655 164.438C140.544 164.039 140.371 163.673 140.137 163.339C139.902 162.999 139.606 162.727 139.249 162.521C138.892 162.311 138.47 162.205 137.983 162.205ZM149.62 174H148.196V164.895C148.196 164.549 148.196 164.253 148.196 164.007C148.202 163.755 148.208 163.526 148.214 163.321C148.226 163.11 148.24 162.896 148.258 162.68C148.076 162.867 147.906 163.028 147.748 163.163C147.59 163.292 147.394 163.453 147.159 163.646L145.691 164.824L144.927 163.831L148.407 161.15H149.62V174ZM162.979 167.558C162.979 168.601 162.9 169.532 162.742 170.353C162.584 171.173 162.335 171.867 161.995 172.436C161.655 173.004 161.216 173.438 160.677 173.736C160.138 174.029 159.49 174.176 158.734 174.176C157.779 174.176 156.988 173.915 156.361 173.394C155.74 172.872 155.274 172.119 154.964 171.135C154.659 170.145 154.507 168.952 154.507 167.558C154.507 166.187 154.645 165.009 154.92 164.024C155.201 163.034 155.652 162.275 156.273 161.748C156.895 161.215 157.715 160.948 158.734 160.948C159.701 160.948 160.498 161.212 161.125 161.739C161.752 162.261 162.218 163.017 162.522 164.007C162.827 164.991 162.979 166.175 162.979 167.558ZM155.975 167.558C155.975 168.753 156.065 169.749 156.247 170.546C156.429 171.343 156.722 171.94 157.126 172.339C157.536 172.731 158.072 172.928 158.734 172.928C159.396 172.928 159.93 172.731 160.334 172.339C160.744 171.946 161.04 171.352 161.222 170.555C161.409 169.758 161.503 168.759 161.503 167.558C161.503 166.38 161.412 165.396 161.23 164.604C161.049 163.808 160.756 163.21 160.352 162.812C159.947 162.407 159.408 162.205 158.734 162.205C158.061 162.205 157.521 162.407 157.117 162.812C156.713 163.21 156.42 163.808 156.238 164.604C156.062 165.396 155.975 166.38 155.975 167.558ZM170.222 174H168.798V164.895C168.798 164.549 168.798 164.253 168.798 164.007C168.804 163.755 168.81 163.526 168.815 163.321C168.827 163.11 168.842 162.896 168.859 162.68C168.678 162.867 168.508 163.028 168.35 163.163C168.191 163.292 167.995 163.453 167.761 163.646L166.293 164.824L165.528 163.831L169.009 161.15H170.222V174Z" fill="white"/>
<path d="M194.319 174H192.896V164.895C192.896 164.549 192.896 164.253 192.896 164.007C192.901 163.755 192.907 163.526 192.913 163.321C192.925 163.11 192.939 162.896 192.957 162.68C192.775 162.867 192.605 163.028 192.447 163.163C192.289 163.292 192.093 163.453 191.858 163.646L190.391 164.824L189.626 163.831L193.106 161.15H194.319V174ZM204.62 174H203.196V164.895C203.196 164.549 203.196 164.253 203.196 164.007C203.202 163.755 203.208 163.526 203.214 163.321C203.226 163.11 203.24 162.896 203.258 162.68C203.076 162.867 202.906 163.028 202.748 163.163C202.59 163.292 202.394 163.453 202.159 163.646L200.691 164.824L199.927 163.831L203.407 161.15H204.62V174ZM217.909 174H209.489V172.778L212.926 169.289C213.564 168.645 214.101 168.07 214.534 167.566C214.974 167.062 215.308 166.567 215.536 166.081C215.765 165.589 215.879 165.05 215.879 164.464C215.879 163.737 215.662 163.184 215.229 162.803C214.801 162.416 214.235 162.223 213.532 162.223C212.917 162.223 212.372 162.328 211.897 162.539C211.423 162.75 210.937 163.049 210.438 163.436L209.656 162.451C209.996 162.164 210.365 161.909 210.764 161.687C211.168 161.464 211.599 161.288 212.056 161.159C212.519 161.03 213.011 160.966 213.532 160.966C214.323 160.966 215.006 161.104 215.58 161.379C216.154 161.654 216.597 162.047 216.907 162.557C217.224 163.066 217.382 163.673 217.382 164.376C217.382 165.056 217.247 165.688 216.978 166.274C216.708 166.854 216.33 167.432 215.844 168.006C215.357 168.574 214.789 169.178 214.139 169.816L211.344 172.603V172.664H217.909V174ZM225.222 174H223.798V164.895C223.798 164.549 223.798 164.253 223.798 164.007C223.804 163.755 223.81 163.526 223.815 163.321C223.827 163.11 223.842 162.896 223.859 162.68C223.678 162.867 223.508 163.028 223.35 163.163C223.191 163.292 222.995 163.453 222.761 163.646L221.293 164.824L220.528 163.831L224.009 161.15H225.222V174Z" fill="white"/>
</g>
<circle cx="42" cy="37" r="24" fill="white"/>
<path d="M36.57 31.232C38.2513 31.232 39.56 31.7953 40.496 32.922C41.4493 34.0487 41.926 35.574 41.926 37.498V46H36.18V38.226C36.18 37.5327 35.9893 36.9867 35.608 36.588C35.244 36.172 34.75 35.964 34.126 35.964C33.4847 35.964 32.982 36.172 32.618 36.588C32.254 36.9867 32.072 37.5327 32.072 38.226V46H26.3V31.336H32.072V33.572C32.5227 32.8787 33.1207 32.3153 33.866 31.882C34.6287 31.4487 35.53 31.232 36.57 31.232ZM47.6009 33.338C47.9649 32.662 48.4849 32.1333 49.1609 31.752C49.8542 31.3533 50.6776 31.154 51.6309 31.154C52.7749 31.154 53.8062 31.4573 54.7249 32.064C55.6436 32.6533 56.3629 33.52 56.8829 34.664C57.4202 35.7907 57.6889 37.1253 57.6889 38.668C57.6889 40.2107 57.4202 41.554 56.8829 42.698C56.3629 43.8247 55.6436 44.6913 54.7249 45.298C53.8062 45.8873 52.7749 46.182 51.6309 46.182C50.6776 46.182 49.8542 45.9913 49.1609 45.61C48.4849 45.2113 47.9649 44.674 47.6009 43.998V46H41.8289V26.76H47.6009V33.338ZM51.8389 38.668C51.8389 37.888 51.6396 37.2813 51.2409 36.848C50.8422 36.4147 50.3309 36.198 49.7069 36.198C49.0829 36.198 48.5716 36.4147 48.1729 36.848C47.7742 37.2813 47.5749 37.888 47.5749 38.668C47.5749 39.448 47.7742 40.0547 48.1729 40.488C48.5716 40.9213 49.0829 41.138 49.7069 41.138C50.3309 41.138 50.8422 40.9213 51.2409 40.488C51.6396 40.0547 51.8389 39.448 51.8389 38.668Z" fill="#52784F"/>
<g filter="url(#filter2_d_2_13)">
<rect x="19" y="83" width="55.7419" height="36" rx="10" fill="url(#paint0_linear_2_13)"/>
</g>
<g filter="url(#filter3_f_2_13)">
<path d="M41.106 83.3871V84.2258C41.106 89.7487 36.6288 94.2258 31.106 94.2258H19.4286" stroke="#7B7B7B"/>
</g>
<g filter="url(#filter4_f_2_13)">
<path d="M51.1705 83.3871V83.8387C51.1705 89.3616 55.6477 93.8387 61.1705 93.8387H75.1705" stroke="#7B7B7B"/>
</g>
<g filter="url(#filter5_f_2_13)">
<path d="M51.1705 119V118.548C51.1705 113.026 55.6477 108.548 61.1705 108.548H75.1705" stroke="#7B7B7B"/>
</g>
<g filter="url(#filter6_f_2_13)">
<path d="M41.106 119V115.065C41.106 109.542 36.6288 105.065 31.106 105.065H19.4286" stroke="#7B7B7B"/>
</g>
<g filter="url(#filter7_f_2_13)">
<line x1="31.5415" y1="94.2258" x2="31.5415" y2="105.065" stroke="#7B7B7B"/>
</g>
<g filter="url(#filter8_f_2_13)">
<line x1="55.9286" y1="93.8387" x2="55.9286" y2="108.161" stroke="#7B7B7B"/>
</g>
</g>
</g>
<defs>
<filter id="filter0_d_2_13" x="0" y="0" width="358" height="228" filterUnits="userSpaceOnUse" color-interpolation-filters="sRGB">
<feFlood flood-opacity="0" result="BackgroundImageFix"/>
<feColorMatrix in="SourceAlpha" type="matrix" values="0 0 0 0 0 0 0 0 0 0 0 0 0 0 0 0 0 0 127 0" result="hardAlpha"/>
<feOffset dx="8" dy="8"/>
<feComposite in2="hardAlpha" operator="out"/>
<feColorMatrix type="matrix" values="0 0 0 0 0 0 0 0 0 0 0 0 0 0 0 0 0 0 1 0"/>
<feBlend mode="normal" in2="BackgroundImageFix" result="effect1_dropShadow_2_13"/>
<feBlend mode="normal" in="SourceGraphic" in2="effect1_dropShadow_2_13" result="shape"/>
</filter>
<filter id="filter1_d_2_13" x="15.626" y="156.948" width="213.596" height="21.2363" filterUnits="userSpaceOnUse" color-interpolation-filters="sRGB">
<feFlood flood-opacity="0" result="BackgroundImageFix"/>
<feColorMatrix in="SourceAlpha" type="matrix" values="0 0 0 0 0 0 0 0 0 0 0 0 0 0 0 0 0 0 127 0" result="hardAlpha"/>
<feOffset/>
<feGaussianBlur stdDeviation="2"/>
<feComposite in2="hardAlpha" operator="out"/>
<feColorMatrix type="matrix" values="0 0 0 0 0 0 0 0 0 0 0 0 0 0 0 0 0 0 0.3 0"/>
<feBlend mode="normal" in2="BackgroundImageFix" result="effect1_dropShadow_2_13"/>
<feBlend mode="normal" in="SourceGraphic" in2="effect1_dropShadow_2_13" result="shape"/>
</filter>
<filter id="filter2_d_2_13" x="11" y="79" width="71.7419" height="52" filterUnits="userSpaceOnUse" color-interpolation-filters="sRGB">
<feFlood flood-opacity="0" result="BackgroundImageFix"/>
<feColorMatrix in="SourceAlpha" type="matrix" values="0 0 0 0 0 0 0 0 0 0 0 0 0 0 0 0 0 0 127 0" result="hardAlpha"/>
<feOffset dy="4"/>
<feGaussianBlur stdDeviation="4"/>
<feComposite in2="hardAlpha" operator="out"/>
<feColorMatrix type="matrix" values="0 0 0 0 0 0 0 0 0 0 0 0 0 0 0 0 0 0 0.2 0"/>
<feBlend mode="normal" in2="BackgroundImageFix" result="effect1_dropShadow_2_13"/>
<feBlend mode="normal" in="SourceGraphic" in2="effect1_dropShadow_2_13" result="shape"/>
</filter>
<filter id="filter3_f_2_13" x="17.4286" y="81.3871" width="26.1774" height="15.3387" filterUnits="userSpaceOnUse" color-interpolation-filters="sRGB">
<feFlood flood-opacity="0" result="BackgroundImageFix"/>
<feBlend mode="normal" in="SourceGraphic" in2="BackgroundImageFix" result="shape"/>
<feGaussianBlur stdDeviation="1" result="effect1_foregroundBlur_2_13"/>
</filter>
<filter id="filter4_f_2_13" x="48.6705" y="81.3871" width="28.5" height="14.9516" filterUnits="userSpaceOnUse" color-interpolation-filters="sRGB">
<feFlood flood-opacity="0" result="BackgroundImageFix"/>
<feBlend mode="normal" in="SourceGraphic" in2="BackgroundImageFix" result="shape"/>
<feGaussianBlur stdDeviation="1" result="effect1_foregroundBlur_2_13"/>
</filter>
<filter id="filter5_f_2_13" x="48.6705" y="106.048" width="28.5" height="14.9516" filterUnits="userSpaceOnUse" color-interpolation-filters="sRGB">
<feFlood flood-opacity="0" result="BackgroundImageFix"/>
<feBlend mode="normal" in="SourceGraphic" in2="BackgroundImageFix" result="shape"/>
<feGaussianBlur stdDeviation="1" result="effect1_foregroundBlur_2_13"/>
</filter>
<filter id="filter6_f_2_13" x="17.4286" y="102.565" width="26.1774" height="18.4355" filterUnits="userSpaceOnUse" color-interpolation-filters="sRGB">
<feFlood flood-opacity="0" result="BackgroundImageFix"/>
<feBlend mode="normal" in="SourceGraphic" in2="BackgroundImageFix" result="shape"/>
<feGaussianBlur stdDeviation="1" result="effect1_foregroundBlur_2_13"/>
</filter>
<filter id="filter7_f_2_13" x="29.0415" y="92.2258" width="5" height="14.8387" filterUnits="userSpaceOnUse" color-interpolation-filters="sRGB">
<feFlood flood-opacity="0" result="BackgroundImageFix"/>
<feBlend mode="normal" in="SourceGraphic" in2="BackgroundImageFix" result="shape"/>
<feGaussianBlur stdDeviation="1" result="effect1_foregroundBlur_2_13"/>
</filter>
<filter id="filter8_f_2_13" x="53.4286" y="91.8387" width="5" height="18.3226" filterUnits="userSpaceOnUse" color-interpolation-filters="sRGB">
<feFlood flood-opacity="0" result="BackgroundImageFix"/>
<feBlend mode="normal" in="SourceGraphic" in2="BackgroundImageFix" result="shape"/>
<feGaussianBlur stdDeviation="1" result="effect1_foregroundBlur_2_13"/>
</filter>
<linearGradient id="paint0_linear_2_13" x1="46.871" y1="83" x2="46.871" y2="119" gradientUnits="userSpaceOnUse">
<stop stop-color="#F2F2F2"/>
<stop offset="1" stop-color="#9E9E9E"/>
</linearGradient>
<clipPath id="clip0_2_13">
<rect width="350" height="220" rx="12" fill="white"/>
</clipPath>
<clipPath id="clip1_2_13">
<rect width="50" height="30.3922" fill="white" transform="translate(282 26)"/>
</clipPath>
</defs>
</svg>
