<svg width="115" height="115" viewBox="0 0 115 115" fill="none" xmlns="http://www.w3.org/2000/svg">
<path d="M57.5 0L68.5165 23.5948L91.2977 10.9815L86.3415 36.5455L112.186 39.7315L93.15 57.5L112.186 75.2685L86.3415 78.4545L91.2977 104.018L68.5165 91.4052L57.5 115L46.4835 91.4052L23.7023 104.018L28.6585 78.4545L2.81425 75.2685L21.85 57.5L2.81425 39.7315L28.6585 36.5455L23.7023 10.9815L46.4835 23.5948L57.5 0Z" fill="#E7A4D4"/>
<path d="M51.6474 48.2C50.5808 48.2 49.7674 47.9 49.2074 47.3C48.6474 46.6867 48.3674 45.8133 48.3674 44.68V43.58H50.4474V44.84C50.4474 45.7467 50.8274 46.2 51.5874 46.2C52.3474 46.2 52.7274 45.7467 52.7274 44.84V41.7C52.7274 40.78 52.3474 40.32 51.5874 40.32C50.8274 40.32 50.4474 40.78 50.4474 41.7V41.82H48.3674L48.7674 34H54.5674V36H50.7274L50.5474 39.34H50.5874C51.0008 38.66 51.6341 38.32 52.4874 38.32C53.2874 38.32 53.8941 38.5933 54.3074 39.14C54.7208 39.6867 54.9274 40.48 54.9274 41.52V44.68C54.9274 45.8133 54.6474 46.6867 54.0874 47.3C53.5274 47.9 52.7141 48.2 51.6474 48.2ZM59.4352 41.78C58.7419 41.78 58.2152 41.5867 57.8552 41.2C57.4952 40.8133 57.3152 40.26 57.3152 39.54V36.04C57.3152 35.32 57.4952 34.7667 57.8552 34.38C58.2152 33.9933 58.7419 33.8 59.4352 33.8C60.1286 33.8 60.6552 33.9933 61.0152 34.38C61.3752 34.7667 61.5552 35.32 61.5552 36.04V39.54C61.5552 40.26 61.3752 40.8133 61.0152 41.2C60.6552 41.5867 60.1286 41.78 59.4352 41.78ZM64.5152 34H65.9152L60.4952 48H59.0952L64.5152 34ZM59.4352 40.52C59.9152 40.52 60.1552 40.2267 60.1552 39.64V35.94C60.1552 35.3533 59.9152 35.06 59.4352 35.06C58.9552 35.06 58.7152 35.3533 58.7152 35.94V39.64C58.7152 40.2267 58.9552 40.52 59.4352 40.52ZM65.5752 48.2C64.8819 48.2 64.3552 48.0067 63.9952 47.62C63.6352 47.2333 63.4552 46.68 63.4552 45.96V42.46C63.4552 41.74 63.6352 41.1867 63.9952 40.8C64.3552 40.4133 64.8819 40.22 65.5752 40.22C66.2686 40.22 66.7952 40.4133 67.1552 40.8C67.5152 41.1867 67.6952 41.74 67.6952 42.46V45.96C67.6952 46.68 67.5152 47.2333 67.1552 47.62C66.7952 48.0067 66.2686 48.2 65.5752 48.2ZM65.5752 46.94C66.0552 46.94 66.2952 46.6467 66.2952 46.06V42.36C66.2952 41.7733 66.0552 41.48 65.5752 41.48C65.0952 41.48 64.8552 41.7733 64.8552 42.36V46.06C64.8552 46.6467 65.0952 46.94 65.5752 46.94ZM27.1817 71.2C26.1284 71.2 25.3217 70.9 24.7617 70.3C24.2151 69.7 23.9417 68.8533 23.9417 67.76V60.24C23.9417 59.1467 24.2151 58.3 24.7617 57.7C25.3217 57.1 26.1284 56.8 27.1817 56.8C28.2351 56.8 29.0351 57.1 29.5817 57.7C30.1417 58.3 30.4217 59.1467 30.4217 60.24V61.72H28.3417V60.1C28.3417 59.2333 27.9751 58.8 27.2417 58.8C26.5084 58.8 26.1417 59.2333 26.1417 60.1V67.92C26.1417 68.7733 26.5084 69.2 27.2417 69.2C27.9751 69.2 28.3417 68.7733 28.3417 67.92V65.78H30.4217V67.76C30.4217 68.8533 30.1417 69.7 29.5817 70.3C29.0351 70.9 28.2351 71.2 27.1817 71.2ZM34.438 57H37.418L39.698 71H37.498L37.098 68.22V68.26H34.598L34.198 71H32.158L34.438 57ZM36.838 66.36L35.858 59.44H35.818L34.858 66.36H36.838ZM44.5667 71.2C43.5001 71.2 42.6934 70.9 42.1467 70.3C41.6001 69.6867 41.3267 68.8133 41.3267 67.68V66.88H43.4067V67.84C43.4067 68.7467 43.7867 69.2 44.5467 69.2C44.9201 69.2 45.2001 69.0933 45.3867 68.88C45.5867 68.6533 45.6867 68.2933 45.6867 67.8C45.6867 67.2133 45.5534 66.7 45.2867 66.26C45.0201 65.8067 44.5267 65.2667 43.8067 64.64C42.9001 63.84 42.2667 63.12 41.9067 62.48C41.5467 61.8267 41.3667 61.0933 41.3667 60.28C41.3667 59.1733 41.6467 58.32 42.2067 57.72C42.7667 57.1067 43.5801 56.8 44.6467 56.8C45.7001 56.8 46.4934 57.1067 47.0267 57.72C47.5734 58.32 47.8467 59.1867 47.8467 60.32V60.9H45.7667V60.18C45.7667 59.7 45.6734 59.3533 45.4867 59.14C45.3001 58.9133 45.0267 58.8 44.6667 58.8C43.9334 58.8 43.5667 59.2467 43.5667 60.14C43.5667 60.6467 43.7001 61.12 43.9667 61.56C44.2467 62 44.7467 62.5333 45.4667 63.16C46.3867 63.96 47.0201 64.6867 47.3667 65.34C47.7134 65.9933 47.8867 66.76 47.8867 67.64C47.8867 68.7867 47.6001 69.6667 47.0267 70.28C46.4667 70.8933 45.6467 71.2 44.5667 71.2ZM50.1481 57H52.3481V62.7H54.7081V57H56.9081V71H54.7081V64.7H52.3481V71H50.1481V57ZM59.5466 57H62.8666C63.9999 57 64.8266 57.2667 65.3466 57.8C65.8666 58.32 66.1266 59.1267 66.1266 60.22V60.78C66.1266 61.5 66.0066 62.0867 65.7666 62.54C65.5399 62.9933 65.1866 63.32 64.7066 63.52V63.56C65.7999 63.9333 66.3466 64.9067 66.3466 66.48V67.68C66.3466 68.76 66.0599 69.5867 65.4866 70.16C64.9266 70.72 64.0999 71 63.0066 71H59.5466V57ZM62.6066 62.7C63.0466 62.7 63.3732 62.5867 63.5866 62.36C63.8132 62.1333 63.9266 61.7533 63.9266 61.22V60.44C63.9266 59.9333 63.8332 59.5667 63.6466 59.34C63.4732 59.1133 63.1932 59 62.8066 59H61.7466V62.7H62.6066ZM63.0066 69C63.3932 69 63.6799 68.9 63.8666 68.7C64.0532 68.4867 64.1466 68.1267 64.1466 67.62V66.4C64.1466 65.76 64.0332 65.32 63.8066 65.08C63.5932 64.8267 63.2332 64.7 62.7266 64.7H61.7466V69H63.0066ZM70.3325 57H73.3125L75.5925 71H73.3925L72.9925 68.22V68.26H70.4925L70.0925 71H68.0525L70.3325 57ZM72.7325 66.36L71.7525 59.44H71.7125L70.7525 66.36H72.7325ZM80.7208 71.2C79.6674 71.2 78.8608 70.9 78.3008 70.3C77.7541 69.7 77.4808 68.8533 77.4808 67.76V60.24C77.4808 59.1467 77.7541 58.3 78.3008 57.7C78.8608 57.1 79.6674 56.8 80.7208 56.8C81.7741 56.8 82.5741 57.1 83.1208 57.7C83.6808 58.3 83.9608 59.1467 83.9608 60.24V61.72H81.8808V60.1C81.8808 59.2333 81.5141 58.8 80.7808 58.8C80.0474 58.8 79.6808 59.2333 79.6808 60.1V67.92C79.6808 68.7733 80.0474 69.2 80.7808 69.2C81.5141 69.2 81.8808 68.7733 81.8808 67.92V65.78H83.9608V67.76C83.9608 68.8533 83.6808 69.7 83.1208 70.3C82.5741 70.9 81.7741 71.2 80.7208 71.2ZM86.277 57H88.477V62.9L91.277 57H93.477L90.857 62.14L93.517 71H91.217L89.357 64.76L88.477 66.54V71H86.277V57Z" fill="white"/>
</svg>
